<?xml version="1.0" encoding="UTF-8"?>
<svg xmlns="http://www.w3.org/2000/svg" viewBox="0 0 16 16">
  <defs>
    <style>
      .cls-1 {
        fill: #fff;
      }

      .cls-2 {
        fill: #231f20;
      }
    </style>
  </defs>
  <g id="Layer_2" data-name="Layer 2">
    <rect class="cls-2" width="16" height="16"/>
  </g>
  <g id="Layer_1" data-name="Layer 1">
    <g>
      <g>
        <path class="cls-1" d="m7.61,7.81c-.4-1.74-.75-3.47-1.09-5.2l1.07.22-1.5,2.27c-.49.72-1.1,1.56-1.66,2.15,1.81.98,3.61,1.99,5.4,3.01-.18.13-4.25,3.24-4.58,3.48,0,0,3.33-3.79,3.33-3.79l.06.78c-1.4-1.17-2.82-2.32-4.25-3.46.52-1.52,1.51-3.54,2.19-5,0,0,1.03-2.2,1.03-2.2.02,2.41.18,5.35-.01,7.75h0Z"/>
        <polygon class="cls-1" points="4.98 13.95 3 10.42 5.89 13.25 4.98 13.95 4.98 13.95"/>
      </g>
      <path class="cls-1" d="m4.55,2.16c-.41,2.98.07,5.89.36,8.84,2.63-.56,5.79-1.29,8.39-2.59,0,0,.37,2.01.37,2.01-.75-.04-1.5-.07-2.24-.07-2.23-.08-4.42.32-6.6.71-.46-2.94-.72-5.89-1.86-8.69,0,0,1.58-.2,1.58-.2h0Z"/>
    </g>
  </g>
</svg>