<?xml version="1.0" encoding="utf-8"?>
<!-- Generator: Adobe Illustrator 27.5.0, SVG Export Plug-In . SVG Version: 6.00 Build 0)  -->
<svg version="1.1" id="Layer_1" xmlns="http://www.w3.org/2000/svg" xmlns:xlink="http://www.w3.org/1999/xlink" x="0px" y="0px"
	 viewBox="0 0 80.4 22.1" style="enable-background:new 0 0 80.4 22.1;" xml:space="preserve">
<style type="text/css">
	.st0{fill:#F0F1F3;}
	.st1{fill:#C87329;}
	.st2{fill:none;stroke:#242325;stroke-width:2;stroke-miterlimit:10;}
	.st3{fill:#F8951D;}
	.st4{fill:#2B2A29;}
	.st5{fill:#EDEDED;}
	.st6{fill:#ED1C24;}
	.st7{fill:#2A2A28;}
	.st8{fill:#F89620;}
	.st9{fill:#C2C1C0;}
	.st10{fill:#C4C4C4;}
	.st11{fill:none;stroke:#242325;stroke-miterlimit:10;}
</style>
<path class="st0" d="M1.8,12.8h5.9c0.8,0,1.4,0.7,1.4,1.4v1.4c0,0.8-0.7,1.5-1.5,1.5H1.8c-0.7,0-1.3-0.6-1.3-1.3v-1.6
	C0.5,13.4,1.1,12.8,1.8,12.8z"/>
<path class="st1" d="M6.4,8.7v0.8c-0.1,0-0.2-0.2-0.2-0.4C6.2,8.9,6.3,8.7,6.4,8.7z"/>
<path class="st1" d="M6.4,3.9v0.8c-0.1,0-0.2-0.2-0.2-0.4S6.3,3.9,6.4,3.9z"/>
<g>
	<g>
		<path class="st2" d="M8.7,10.9H2.3c-0.6,0-1.1-0.5-1.1-1.1v-6c0-0.6,0.5-1.1,1.1-1.1h8.4"/>
		<path class="st2" d="M2.4,10.9h6.8c0.8,0,1.4,0.6,1.4,1.4v5.5c0,0.8-0.6,1.4-1.4,1.4H1.2"/>
	</g>
</g>
<path class="st3" d="M10.4,8.8H4.5C3.7,8.8,3,8.2,3,7.4V6c0-0.8,0.7-1.5,1.5-1.5h5.9c0.7,0,1.3,0.6,1.3,1.3v1.6
	C11.7,8.2,11.1,8.8,10.4,8.8z"/>
<path class="st4" d="M5.1,5.4L5.1,5.4z"/>
<path class="st4" d="M6.3,4.8v3.8c-0.6,0-1.1-0.8-1.1-1.9S5.7,4.8,6.3,4.8z"/>
<path class="st4" d="M9.9,8.6V4.8c0.3,0,0.6,0.8,0.6,1.9S10.2,8.6,9.9,8.6z"/>
<polygon class="st5" points="3.3,5.1 3.6,4.9 3.8,4.7 4.1,4.6 4.3,4.6 4.3,4.7 3.8,5 "/>
<polygon class="st5" points="3.1,7.9 3.3,8.3 3.5,8.5 3.7,8.6 3.9,8.7 3.9,8.6 3.6,8.2 "/>
<path class="st6" d="M11.1,4.8c0,0,0.1,0.1,0.3,0.2c0.1,0.2,0.1,0.2,0.1,0.2l0.1,0.2c0,0-0.2,0.1-0.3,0C11.2,5.2,10.9,5,11.1,4.8z"
	/>
<path class="st6" d="M11.2,8.5c0,0,0.1-0.1,0.3-0.2s0.1-0.2,0.1-0.2l0.1-0.2c0,0-0.2-0.1-0.3,0C11.2,8.1,11,8.4,11.2,8.5z"/>
<g>
	<polygon class="st7" points="9.8,8.6 6.4,8.6 6.4,8.4 9.7,8.4 	"/>
	<rect x="8" y="8.4" class="st8" width="0.2" height="0.2"/>
</g>
<g>
	<polygon class="st7" points="6.4,4.8 9.8,4.8 9.7,5 6.5,5 	"/>
	<rect x="8" y="4.8" class="st8" width="0.2" height="0.2"/>
</g>
<path class="st9" d="M5.8,13v-0.8c0.1,0,0.2,0.2,0.2,0.4S5.9,13,5.8,13z"/>
<path class="st9" d="M5.8,17.8V17C5.9,17,6,17.2,6,17.4C6,17.6,5.9,17.8,5.8,17.8z"/>
<path class="st4" d="M7.1,16.3L7.1,16.3z"/>
<path class="st4" d="M5.9,16.9V13C6.5,13,7,13.9,7,15C7,16,6.5,16.9,5.9,16.9z"/>
<path class="st4" d="M2.3,13v3.8C2,16.9,1.7,16,1.7,15C1.7,13.9,2,13,2.3,13z"/>
<polygon class="st10" points="8.9,16.5 8.6,16.8 8.4,17 8.1,17 7.9,17.1 7.9,17 8.4,16.6 "/>
<polygon class="st10" points="9.1,13.7 8.9,13.4 8.7,13.1 8.5,13 8.3,12.9 8.3,13 8.6,13.5 "/>
<path class="st6" d="M1.1,16.9c0,0-0.1-0.1-0.3-0.2s-0.1-0.2-0.1-0.2l-0.1-0.2c0,0,0.2-0.1,0.3,0C1,16.4,1.3,16.7,1.1,16.9z"/>
<path class="st6" d="M1,13.1c0,0-0.1,0.1-0.3,0.2s-0.1,0.2-0.1,0.2l-0.1,0.2c0,0,0.2,0.1,0.3,0C1,13.6,1.2,13.3,1,13.1z"/>
<g>
	<polygon class="st7" points="2.4,13 5.8,13 5.8,13.2 2.5,13.2 	"/>
	<rect x="4" y="13" class="st0" width="0.2" height="0.2"/>
</g>
<g>
	<polygon class="st7" points="5.8,16.8 2.4,16.8 2.5,16.7 5.7,16.7 	"/>
	<rect x="4" y="16.6" class="st0" width="0.2" height="0.2"/>
</g>
<g>
	<line class="st2" x1="17.6" y1="2.6" x2="17.6" y2="19.2"/>
	<path class="st2" d="M14.6,2.6h7.3c0,0,3.8-0.1,3.8,3.8s0,5.8,0,5.8s-0.2,2.8-3.7,2.8s-7.4-0.1-7.4-0.1"/>
	<line class="st11" x1="14.6" y1="4" x2="14.6" y2="1.2"/>
	<line class="st11" x1="27.8" y1="11" x2="30.6" y2="11"/>
	<line class="st11" x1="38.5" y1="10.9" x2="41.3" y2="10.9"/>
	<line class="st11" x1="34.8" y1="0.6" x2="34.8" y2="3.5"/>
	<line class="st11" x1="41.7" y1="1.7" x2="41.7" y2="4.6"/>
	<line class="st11" x1="54.4" y1="1.7" x2="54.4" y2="4.6"/>
	<line class="st11" x1="65.9" y1="18.5" x2="65.9" y2="21.3"/>
	<line class="st11" x1="34.8" y1="19" x2="34.8" y2="21.8"/>
	<line class="st11" x1="14.6" y1="16.4" x2="14.6" y2="13.5"/>
	<line class="st11" x1="16.2" y1="19.6" x2="19" y2="19.6"/>
	<line class="st11" x1="11.1" y1="4" x2="11.1" y2="1.2"/>
	<line class="st11" x1="0.8" y1="20.7" x2="0.8" y2="17.8"/>
	<line class="st11" x1="46.7" y1="20.4" x2="49.5" y2="20.4"/>
	<line class="st11" x1="56.3" y1="2.8" x2="59.1" y2="2.8"/>
	<line class="st11" x1="68.8" y1="3.1" x2="71.6" y2="3.1"/>
	<line class="st11" x1="77.4" y1="3.1" x2="80.3" y2="3.1"/>
	<line class="st11" x1="69.9" y1="18.4" x2="69.9" y2="21.3"/>
</g>
<g>
	<g>
		<path class="st2" d="M34.7,2.1c0,0-3.3-0.2-4.4,1.7c-1.1,1.9-1.1,3.7-1.1,3.7l0,7.5c0,0,0.2,2.8,1.4,3.8c1.1,1,2.2,1.3,2.2,1.3
			s0.6,0.1,2,0.2"/>
		<path class="st2" d="M34.5,2.1c0,0,3.3-0.2,4.4,1.7c1.1,1.9,1.1,3.7,1.1,3.7l0,7.5c0,0-0.2,2.8-1.4,3.8s-2.2,1.3-2.2,1.3
			s-0.6,0.1-2,0.2"/>
	</g>
</g>
<path class="st0" d="M-31.6-8.6h5.9c0.8,0,1.4,0.7,1.4,1.4v1.4c0,0.8-0.7,1.5-1.5,1.5h-5.9c-0.7,0-1.3-0.6-1.3-1.3v-1.6
	C-32.9-8-32.3-8.6-31.6-8.6z"/>
<path class="st1" d="M-28.1-12.7v0.8c-0.1,0-0.2-0.2-0.2-0.4C-28.3-12.5-28.2-12.7-28.1-12.7z"/>
<path class="st1" d="M-28.1-17.5v0.8c-0.1,0-0.2-0.2-0.2-0.4C-28.3-17.3-28.2-17.5-28.1-17.5z"/>
<path class="st11" d="M-25.1-10.5h-6.4c-0.6,0-1.1-0.5-1.1-1.1v-6c0-0.6,0.5-1.1,1.1-1.1h8.4"/>
<path class="st11" d="M-31.4-10.5h6.8c0.8,0,1.4,0.6,1.4,1.4v5.5c0,0.8-0.6,1.4-1.4,1.4h-8.1"/>
<line class="st11" x1="-32.6" y1="-1" x2="-32.6" y2="-3.4"/>
<line class="st11" x1="-23.2" y1="-17.6" x2="-23.2" y2="-20"/>
<path class="st3" d="M-24.1-12.6H-30c-0.8,0-1.4-0.7-1.4-1.4v-1.4c0-0.8,0.7-1.5,1.5-1.5h5.9c0.7,0,1.3,0.6,1.3,1.3v1.6
	C-22.8-13.2-23.4-12.6-24.1-12.6z"/>
<path class="st4" d="M-29.4-16L-29.4-16z"/>
<path class="st4" d="M-28.2-16.6v3.8c-0.6,0-1.1-0.8-1.1-1.9S-28.8-16.6-28.2-16.6z"/>
<path class="st4" d="M-24.6-12.8v-3.8c0.3,0,0.6,0.8,0.6,1.9S-24.3-12.8-24.6-12.8z"/>
<polygon class="st5" points="-31.2,-16.2 -30.9,-16.5 -30.7,-16.7 -30.4,-16.8 -30.2,-16.8 -30.3,-16.7 -30.7,-16.4 "/>
<polygon class="st5" points="-31.4,-13.5 -31.2,-13.1 -31,-12.9 -30.8,-12.7 -30.6,-12.6 -30.6,-12.8 -30.9,-13.2 "/>
<path class="st6" d="M-23.4-16.6c0,0,0.1,0.1,0.3,0.2c0.1,0.2,0.1,0.2,0.1,0.2l0.1,0.2c0,0-0.2,0.1-0.3,0
	C-23.3-16.1-23.6-16.4-23.4-16.6z"/>
<path class="st6" d="M-23.3-12.8c0,0,0.1-0.1,0.3-0.2c0.1-0.2,0.1-0.2,0.1-0.2l0.1-0.2c0,0-0.2-0.1-0.3,0
	C-23.3-13.3-23.6-13-23.3-12.8z"/>
<g>
	<polygon class="st7" points="-24.7,-12.8 -28.1,-12.8 -28.1,-13 -24.8,-13 	"/>
	<rect x="-26.5" y="-13" class="st8" width="0.2" height="0.2"/>
</g>
<g>
	<polygon class="st7" points="-28.1,-16.6 -24.7,-16.6 -24.8,-16.4 -28,-16.4 	"/>
	<rect x="-26.5" y="-16.6" class="st8" width="0.2" height="0.2"/>
</g>
<path class="st9" d="M-27.6-8.4v-0.8c0.1,0,0.2,0.2,0.2,0.4C-27.4-8.6-27.5-8.4-27.6-8.4z"/>
<path class="st9" d="M-27.6-3.6v-0.8c0.1,0,0.2,0.2,0.2,0.4C-27.4-3.8-27.5-3.6-27.6-3.6z"/>
<path class="st4" d="M-26.3-5.1L-26.3-5.1z"/>
<path class="st4" d="M-27.5-4.5v-3.8c0.6,0,1.1,0.8,1.1,1.9C-26.4-5.4-26.9-4.5-27.5-4.5z"/>
<path class="st4" d="M-31.1-8.3v3.8c-0.3,0-0.6-0.8-0.6-1.9C-31.7-7.5-31.4-8.3-31.1-8.3z"/>
<polygon class="st10" points="-24.5,-4.9 -24.8,-4.6 -25,-4.4 -25.3,-4.4 -25.5,-4.3 -25.5,-4.4 -25,-4.8 "/>
<polygon class="st10" points="-24.3,-7.7 -24.5,-8 -24.7,-8.2 -24.9,-8.4 -25.1,-8.5 -25.1,-8.3 -24.8,-7.9 "/>
<path class="st6" d="M-32.3-4.5c0,0-0.1-0.1-0.3-0.2S-32.8-5-32.8-5l-0.1-0.2c0,0,0.2-0.1,0.3,0C-32.4-5-32.1-4.7-32.3-4.5z"/>
<path class="st6" d="M-32.4-8.3c0,0-0.1,0.1-0.3,0.2s-0.1,0.2-0.1,0.2l-0.1,0.2c0,0,0.2,0.1,0.3,0C-32.4-7.8-32.2-8.1-32.4-8.3z"/>
<g>
	<polygon class="st7" points="-31,-8.3 -27.6,-8.3 -27.6,-8.2 -30.9,-8.2 	"/>
	<rect x="-29.4" y="-8.4" class="st0" width="0.2" height="0.2"/>
</g>
<g>
	<polygon class="st7" points="-27.6,-4.5 -31,-4.5 -30.9,-4.7 -27.7,-4.7 	"/>
	<rect x="-29.4" y="-4.7" class="st0" width="0.2" height="0.2"/>
</g>
<line class="st11" x1="-20.1" y1="-18.8" x2="-20.1" y2="-2.2"/>
<path class="st11" d="M-23.1-18.8h7.3c0,0,3.8-0.1,3.8,3.8s0,5.8,0,5.8s-0.2,2.8-3.7,2.8s-7.4-0.1-7.4-0.1"/>
<line class="st11" x1="-23.1" y1="-17.6" x2="-23.1" y2="-20"/>
<line class="st11" x1="-23.1" y1="-5.3" x2="-23.1" y2="-7.6"/>
<line class="st11" x1="-18.9" y1="-1.9" x2="-21.3" y2="-1.9"/>
<g>
	<path class="st11" d="M-6.6-19.5c0,0-3.3-0.2-4.4,1.7S-12-14-12-14l0,7.5c0,0,0.2,2.8,1.4,3.8s2.2,1.3,2.2,1.3s0.6,0.1,2,0.2"/>
	<path class="st11" d="M-6.8-19.5c0,0,3.3-0.2,4.4,1.7S-1.3-14-1.3-14l0,7.5c0,0-0.2,2.8-1.4,3.8s-2.2,1.3-2.2,1.3s-0.6,0.1-2,0.2"
		/>
</g>
<line class="st11" x1="-6.5" y1="-18.3" x2="-6.5" y2="-20.6"/>
<line class="st11" x1="-6.5" y1="0" x2="-6.5" y2="-2.4"/>
<line class="st11" x1="-13.2" y1="-10.7" x2="-10.9" y2="-10.7"/>
<line class="st11" x1="-2.4" y1="-10.7" x2="0" y2="-10.7"/>
<line class="st2" x1="42" y1="3.2" x2="54.1" y2="3.2"/>
<line class="st2" x1="48.1" y1="19.9" x2="48.1" y2="3.3"/>
<polyline class="st2" points="57.7,3.2 57.7,19.9 65.6,19.9 "/>
<path class="st2" d="M70.2,2.6v5c0,1.8,1.5,3.3,3.3,3.3h5.3V2.6v14.3c0,1.6-1.3,3-3,3h-5.6"/>
<path class="st1" d="M24.4,7.9"/>
<path class="st11" d="M26.9,12.8"/>
<path class="st11" d="M24.5,12.8"/>
<path class="st3" d="M22.4,13.2h-1.6"/>
<path class="st6" d="M20.3,13.1"/>
</svg>
